<svg width="32" height="32" viewBox="0 0 32 32" fill="none" xmlns="http://www.w3.org/2000/svg">
<g style="mix-blend-mode:luminosity">
<path d="M16 16H14V18H16V16Z" fill="#FFDED4"/>
<path d="M18 16H16V18H18V16Z" fill="#FFDED4"/>
<path d="M20 16H18V18H20V16Z" fill="#FFDED4"/>
<path d="M22 16H20V18H22V16Z" fill="#FFDED4"/>
<path d="M24 16H22V18H24V16Z" fill="#FFDED4"/>
<path d="M26 16H24V18H26V16Z" fill="#FFDED4"/>
<path d="M28 16H26V18H28V16Z" fill="#FFDED4"/>
<path d="M30 14H28V16H30V14Z" fill="#FFDED4"/>
<path d="M12 16H10V18H12V16Z" fill="#1F4A30"/>
<path d="M12 14H10V16H12V14Z" fill="#1F4A30"/>
<path d="M10 16H8V18H10V16Z" fill="#231E2B"/>
<path d="M10 14H8V16H10V14Z" fill="#1F4A30"/>
<path d="M10 12H8V14H10V12Z" fill="#1F4A30"/>
<path d="M12 12H10V14H12V12Z" fill="#1F4A30"/>
<path d="M8 14H6V16H8V14Z" fill="#231E2B"/>
<path d="M6 14H4V16H6V14Z" fill="#FFDED4"/>
<path d="M28 12H12V14H28V12Z" fill="#1F4A30"/>
<path d="M8 12H6V14H8V12Z" fill="#1F4A30"/>
<path d="M6 12H4V14H6V12Z" fill="#231E2B"/>
<path d="M4 12H2V14H4V12Z" fill="#FFDED4"/>
<path d="M4 10H2V12H4V10Z" fill="#231E2B"/>
<path d="M6 10H4V12H6V10Z" fill="#4FAB59"/>
<path d="M8 10H6V12H8V10Z" fill="#4FAB59"/>
<path d="M10 10H8V12H10V10Z" fill="#4FAB59"/>
<path d="M2 10H0V12H2V10Z" fill="#FFDED4"/>
<path d="M28 8H12V10H28V8Z" fill="#62E396"/>
<path d="M28 10H12V12H28V10Z" fill="#4FAB59"/>
<path d="M8 8H6V10H8V8Z" fill="#62E396"/>
<path d="M10 8H8V10H10V8Z" fill="#4FAB59"/>
<path d="M12 8H10V10H12V8Z" fill="#4FAB59"/>
<path d="M12 10H10V12H12V10Z" fill="#4FAB59"/>
<path d="M6 8H4V10H6V8Z" fill="#231E2B"/>
<path d="M4 8H2V10H4V8Z" fill="#FFDED4"/>
<path d="M32 8H30V14H32V8Z" fill="#FFDED4"/>
<path d="M10 6H8V8H10V6Z" fill="#62E396"/>
<path d="M12 6H10V8H12V6Z" fill="#4FAB59"/>
<path d="M8 6H6V8H8V6Z" fill="#231E2B"/>
<path d="M6 6H4V8H6V6Z" fill="#FFDED4"/>
<path d="M12 4H10V6H12V4Z" fill="#62E396"/>
<path d="M10 4H8V6H10V4Z" fill="#231E2B"/>
<path d="M12 2H10V4H12V2Z" fill="#231E2B"/>
<path d="M14 4H12V6H14V4Z" fill="#231E2B"/>
<path d="M14 6H12V8H14V6Z" fill="#231E2B"/>
<path d="M16 6H14V8H16V6Z" fill="#231E2B"/>
<path d="M18 6H16V8H18V6Z" fill="#231E2B"/>
<path d="M20 6H18V8H20V6Z" fill="#231E2B"/>
<path d="M22 6H20V8H22V6Z" fill="#231E2B"/>
<path d="M24 6H22V8H24V6Z" fill="#231E2B"/>
<path d="M26 6H24V8H26V6Z" fill="#231E2B"/>
<path d="M28 6H26V8H28V6Z" fill="#231E2B"/>
<path d="M30 8H28V10H30V8Z" fill="#231E2B"/>
<path d="M30 10H28V12H30V10Z" fill="#231E2B"/>
<path d="M30 12H28V14H30V12Z" fill="#231E2B"/>
<path d="M28 14H26V16H28V14Z" fill="#231E2B"/>
<path d="M26 14H24V16H26V14Z" fill="#231E2B"/>
<path d="M24 14H22V16H24V14Z" fill="#231E2B"/>
<path d="M22 14H20V16H22V14Z" fill="#231E2B"/>
<path d="M20 14H18V16H20V14Z" fill="#231E2B"/>
<path d="M18 14H16V16H18V14Z" fill="#231E2B"/>
<path d="M16 14H14V16H16V14Z" fill="#231E2B"/>
<path d="M14 14H12V16H14V14Z" fill="#231E2B"/>
<path d="M14 16H12V18H14V16Z" fill="#231E2B"/>
<path d="M12 18H10V20H12V18Z" fill="#231E2B"/>
<path d="M8 4H6V6H8V4Z" fill="#FFDED4"/>
<path d="M10 2H8V4H10V2Z" fill="#FFDED4"/>
<path d="M12 0H10V2H12V0Z" fill="#FFDED4"/>
<path d="M14 2H12V4H14V2Z" fill="#FFDED4"/>
<path d="M16 4H14V6H16V4Z" fill="#FFDED4"/>
<path d="M18 4H16V6H18V4Z" fill="#FFDED4"/>
<path d="M20 4H18V6H20V4Z" fill="#FFDED4"/>
<path d="M22 4H20V6H22V4Z" fill="#FFDED4"/>
<path d="M24 4H22V6H24V4Z" fill="#FFDED4"/>
<path d="M26 4H24V6H26V4Z" fill="#FFDED4"/>
<path d="M28 4H26V6H28V4Z" fill="#FFDED4"/>
<path d="M30 6H28V8H30V6Z" fill="#FFDED4"/>
<path d="M20 30H22V32H20V30Z" fill="#FFDED4"/>
<path d="M18 28H20V30H18V28Z" fill="#FFDED4"/>
<path d="M16 26H18V28H16V26Z" fill="#FFDED4"/>
<path d="M14 26H16V28H14V26Z" fill="#FFDED4"/>
<path d="M12 26H14V28H12V26Z" fill="#FFDED4"/>
<path d="M10 26H12V28H10V26Z" fill="#FFDED4"/>
<path d="M8 26H10V28H8V26Z" fill="#FFDED4"/>
<path d="M6 26H8V28H6V26Z" fill="#FFDED4"/>
<path d="M4 26H6V28H4V26Z" fill="#FFDED4"/>
<path d="M2 24H4V26H2V24Z" fill="#FFDED4"/>
<path d="M2 16H4V18H2V16Z" fill="#FFDED4"/>
<path d="M22 28H24V30H22V28Z" fill="#FFDED4"/>
<path d="M20 26H22V28H20V26Z" fill="#C72D00"/>
<path d="M20 24H22V26H20V24Z" fill="#FF3900"/>
<path d="M20 22H22V24H20V22Z" fill="#FF3900"/>
<path d="M22 20H24V22H22V20Z" fill="#FF3900"/>
<path d="M14 20H16V22H14V20Z" fill="#FF3900"/>
<path d="M8 20H10V22H8V20Z" fill="#FF3900"/>
<path d="M10 20H12V22H10V20Z" fill="#FF3900"/>
<path d="M18 20H20V22H18V20Z" fill="#FF3900"/>
<path d="M4 20H6V22H4V20Z" fill="#FF3900"/>
<path d="M22 26H24V28H22V26Z" fill="#231E2B"/>
<path d="M20 28H22V30H20V28Z" fill="#231E2B"/>
<path d="M18 26H20V28H18V26Z" fill="#231E2B"/>
<path d="M18 24H20V26H18V24Z" fill="#231E2B"/>
<path d="M16 24H18V26H16V24Z" fill="#231E2B"/>
<path d="M14 24H16V26H14V24Z" fill="#231E2B"/>
<path d="M12 24H14V26H12V24Z" fill="#231E2B"/>
<path d="M10 24H12V26H10V24Z" fill="#231E2B"/>
<path d="M8 24H10V26H8V24Z" fill="#231E2B"/>
<path d="M6 24H8V26H6V24Z" fill="#231E2B"/>
<path d="M4 24H6V26H4V24Z" fill="#231E2B"/>
<path d="M2 22H4V24H2V22Z" fill="#231E2B"/>
<path d="M2 20H4V22H2V20Z" fill="#231E2B"/>
<path d="M2 18H4V20H2V18Z" fill="#231E2B"/>
<path d="M24 26H26V28H24V26Z" fill="#FFDED4"/>
<path d="M22 24H24V26H22V24Z" fill="#C72D00"/>
<path d="M22 22H24V24H22V22Z" fill="#FF3900"/>
<path d="M24 20H26V22H24V20Z" fill="#FF3900"/>
<path d="M16 20H18V22H16V20Z" fill="#FF3900"/>
<path d="M20 20H22V22H20V20Z" fill="#FF3900"/>
<path d="M12 20H14V22H12V20Z" fill="#FF3900"/>
<path d="M6 20H8V22H6V20Z" fill="#FF3900"/>
<path d="M24 24H26V26H24V24Z" fill="#231E2B"/>
<path d="M26 24H28V26H26V24Z" fill="#FFDED4"/>
<path d="M4 22H20V24H4V22Z" fill="#C72D00"/>
<path d="M24 22H26V24H24V22Z" fill="#C72D00"/>
<path d="M26 22H28V24H26V22Z" fill="#231E2B"/>
<path d="M28 22H30V24H28V22Z" fill="#FFDED4"/>
<path d="M26 20H28V22H26V20Z" fill="#C72D00"/>
<path d="M28 20H30V22H28V20Z" fill="#231E2B"/>
<path d="M30 20H32V22H30V20Z" fill="#FFDED4"/>
<path d="M4 18H10V20H4V18Z" fill="#FF6F45"/>
<path d="M12 18H20V20H12V18Z" fill="#FF6F45"/>
<path d="M24 18H26V20H24V18Z" fill="#FF6F45"/>
<path d="M26 18H28V20H26V18Z" fill="#231E2B"/>
<path d="M28 18H30V20H28V18Z" fill="#FFDED4"/>
<path d="M0 18H2V24H0V18Z" fill="#FFDED4"/>
<path d="M22 16H24V18H22V16Z" fill="#FF6F45"/>
<path d="M20 16H22V18H20V16Z" fill="#FF3900"/>
<path d="M20 18H22V20H20V18Z" fill="#FF3900"/>
<path d="M22 18H24V20H22V18Z" fill="#FF3900"/>
<path d="M24 16H26V18H24V16Z" fill="#231E2B"/>
<path d="M26 16H28V18H26V16Z" fill="#FFDED4"/>
<path d="M20 14H22V16H20V14Z" fill="#FF6F45"/>
<path d="M22 14H24V16H22V14Z" fill="#231E2B"/>
<path d="M20 12H22V14H20V12Z" fill="#231E2B"/>
<path d="M18 14H20V16H18V14Z" fill="#231E2B"/>
<path d="M18 16H20V18H18V16Z" fill="#231E2B"/>
<path d="M16 16H18V18H16V16Z" fill="#231E2B"/>
<path d="M14 16H16V18H14V16Z" fill="#231E2B"/>
<path d="M4 16H6V18H4V16Z" fill="#231E2B"/>
<path d="M6 16H8V18H6V16Z" fill="#231E2B"/>
<path d="M16 14H18V16H16V14Z" fill="#231E2B"/>
</g>
</svg>
