<svg width="32" height="32" viewBox="0 0 32 32" fill="none" xmlns="http://www.w3.org/2000/svg">
<g style="mix-blend-mode:luminosity">
<path d="M24 29.8667H18V32H24V29.8667Z" fill="#FFDED4"/>
<path d="M26 27.7333H24V29.8667H26V27.7333Z" fill="#FFDED4"/>
<path d="M24 27.7333H18V29.8667H24V27.7333Z" fill="#400E00"/>
<path d="M18 27.7333H16V29.8667H18V27.7333Z" fill="#FFDED4"/>
<path d="M28 25.6H26V27.7333H28V25.6Z" fill="#FFDED4"/>
<path d="M26 25.6H24V27.7333H26V25.6Z" fill="#400E00"/>
<path d="M24 25.6H18V27.7333H24V25.6Z" fill="#F87B20"/>
<path d="M18 25.6H16V27.7333H18V25.6Z" fill="#400E00"/>
<path d="M16 25.6H14V27.7333H16V25.6Z" fill="#FFDED4"/>
<path d="M30 23.4667H28V25.6H30V23.4667Z" fill="#FFDED4"/>
<path d="M28 23.4667H26V25.6H28V23.4667Z" fill="#400E00"/>
<path d="M18 23.4667H16V25.6H18V23.4667Z" fill="#F87B20"/>
<path d="M16 23.4667H14V25.6H16V23.4667Z" fill="#400E00"/>
<path d="M14 23.4667H8V25.6H14V23.4667Z" fill="#FFDED4"/>
<path d="M32 21.3333H30V23.4667H32V21.3333Z" fill="#FFDED4"/>
<path d="M30 21.3333H28V23.4667H30V21.3333Z" fill="#400E00"/>
<path d="M28 21.3333H26V23.4667H28V21.3333Z" fill="#FFD494"/>
<path d="M16 21.3333H14V23.4667H16V21.3333Z" fill="#F87B20"/>
<path d="M14 21.3333H8V23.4667H14V21.3333Z" fill="#400E00"/>
<path d="M8 21.3333H6V23.4667H8V21.3333Z" fill="#FFDED4"/>
<path d="M30 19.2H28V21.3333H30V19.2Z" fill="#FFDED4"/>
<path d="M28 19.2H26V21.3333H28V19.2Z" fill="#400E00"/>
<path d="M26 19.2H24V21.3333H26V19.2Z" fill="#FFD494"/>
<path d="M16 19.2V23.4667H18V25.6H26V21.3333H24V19.2H16Z" fill="#FFB74C"/>
<path d="M16 19.2H14V21.3333H16V19.2Z" fill="#400E00"/>
<path d="M14 19.2H8V21.3333H14V19.2Z" fill="#F87B20"/>
<path d="M8 19.2H6V21.3333H8V19.2Z" fill="#400E00"/>
<path d="M6 19.2H4V21.3333H6V19.2Z" fill="#FFDED4"/>
<path d="M28 17.0667H26V19.2H28V17.0667Z" fill="#FFDED4"/>
<path d="M26 17.0667H24V19.2H26V17.0667Z" fill="#400E00"/>
<path d="M24 17.0667H18V19.2H24V17.0667Z" fill="#FFD494"/>
<path d="M18 17.0667H16V19.2H18V17.0667Z" fill="#400E00"/>
<path d="M16 19.2V14.9333H14V12.8H6V14.9333H4V17.0667H8V19.2H16Z" fill="#FFB74C"/>
<path d="M8 17.0667H6V19.2H8V17.0667Z" fill="#F87B20"/>
<path d="M6 17.0667H4V19.2H6V17.0667Z" fill="#400E00"/>
<path d="M4 17.0667H2V19.2H4V17.0667Z" fill="#FFDED4"/>
<path d="M26 14.9333H24V17.0667H26V14.9333Z" fill="#FFDED4"/>
<path d="M24 14.9333H18V17.0667H24V14.9333Z" fill="#400E00"/>
<path d="M18 14.9333H16V17.0667H18V14.9333Z" fill="#FFD494"/>
<path d="M4 14.9333H2V17.0667H4V14.9333Z" fill="#400E00"/>
<path d="M2 14.9333H0V17.0667H2V14.9333Z" fill="#FFDED4"/>
<path d="M28 12.8H26V14.9333H28V12.8Z" fill="#FFDED4"/>
<path d="M26 12.8H24V14.9333H26V12.8Z" fill="#400E00"/>
<path d="M24 12.8H18V14.9333H24V12.8Z" fill="#F87B20"/>
<path d="M18 12.8H16V14.9333H18V12.8Z" fill="#400E00"/>
<path d="M16 12.8H14V14.9333H16V12.8Z" fill="#FFD494"/>
<path d="M6 12.8H4V14.9333H6V12.8Z" fill="#400E00"/>
<path d="M4 12.8H2V14.9333H4V12.8Z" fill="#FFDED4"/>
<path d="M30 10.6667H28V12.8H30V10.6667Z" fill="#FFDED4"/>
<path d="M28 10.6667H26V12.8H28V10.6667Z" fill="#400E00"/>
<path d="M18 10.6667H16V12.8H18V10.6667Z" fill="#F87B20"/>
<path d="M16 10.6667H14V12.8H16V10.6667Z" fill="#400E00"/>
<path d="M14 10.6667H8V12.8H14V10.6667Z" fill="#FFD494"/>
<path d="M8 10.6667H6V12.8H8V10.6667Z" fill="#400E00"/>
<path d="M6 10.6667H4V12.8H6V10.6667Z" fill="#FFDED4"/>
<path d="M32 8.53333H30V10.6667H32V8.53333Z" fill="#FFDED4"/>
<path d="M30 8.53333H28V10.6667H30V8.53333Z" fill="#400E00"/>
<path d="M28 8.53333H26V10.6667H28V8.53333Z" fill="#FFD494"/>
<path d="M24 8.53333V6.4H16V8.53333H14V10.6667H18V12.8H26V8.53333H24Z" fill="#FFB74C"/>
<path d="M14 8.53333H8V10.6667H14V8.53333Z" fill="#400E00"/>
<path d="M8 8.53333H6V10.6667H8V8.53333Z" fill="#FFDED4"/>
<path d="M30 6.4H28V8.53333H30V6.4Z" fill="#FFDED4"/>
<path d="M28 6.4H26V8.53333H28V6.4Z" fill="#400E00"/>
<path d="M26 6.4H24V8.53333H26V6.4Z" fill="#FFD494"/>
<path d="M16 6.4H14V8.53333H16V6.4Z" fill="#400E00"/>
<path d="M14 6.4H8V8.53333H14V6.4Z" fill="#FFDED4"/>
<path d="M28 4.26666H26V6.4H28V4.26666Z" fill="#FFDED4"/>
<path d="M26 4.26666H24V6.4H26V4.26666Z" fill="#400E00"/>
<path d="M24 4.26666H18V6.4H24V4.26666Z" fill="#FFD494"/>
<path d="M18 4.26666H16V6.4H18V4.26666Z" fill="#400E00"/>
<path d="M16 4.26666H14V6.4H16V4.26666Z" fill="#FFDED4"/>
<path d="M26 2.13333H24V4.26666H26V2.13333Z" fill="#FFDED4"/>
<path d="M24 2.13333H18V4.26666H24V2.13333Z" fill="#400E00"/>
<path d="M18 2.13333H16V4.26666H18V2.13333Z" fill="#FFDED4"/>
<path d="M24 0H18V2.13333H24V0Z" fill="#FFDED4"/>
</g>
</svg>
