<svg width="33" height="32" viewBox="0 0 33 32" fill="none" xmlns="http://www.w3.org/2000/svg">
<g style="mix-blend-mode:luminosity">
<path d="M18.5 28H14.5V30H18.5V28Z" fill="#FFDED5"/>
<path d="M20.5 26H18.5V28H20.5V26Z" fill="#FFDED5"/>
<path d="M18.5 26H14.5V28H18.5V26Z" fill="#400E00"/>
<path d="M14.5 26H12.5V28H14.5V26Z" fill="#FFDED5"/>
<path d="M22.5 24H20.5V26H22.5V24Z" fill="#FFDED5"/>
<path d="M20.5 24H18.5V26H20.5V24Z" fill="#400E00"/>
<path d="M14.5 24H12.5V26H14.5V24Z" fill="#400E00"/>
<path d="M12.5 24H10.5V26H12.5V24Z" fill="#FFDED5"/>
<path d="M24.5 22H22.5V24H24.5V22Z" fill="#FFDED5"/>
<path d="M22.5 22H20.5V24H22.5V22Z" fill="#400E00"/>
<path d="M12.5 22V24H14.5V26H18.5V24H20.5V22H12.5Z" fill="#C72D00"/>
<path d="M12.5 22H10.5V24H12.5V22Z" fill="#400E00"/>
<path d="M10.5 22H8.5V24H10.5V22Z" fill="#FFDED5"/>
<path d="M26.5 20H24.5V22H26.5V20Z" fill="#FFDED5"/>
<path d="M24.5 20H22.5V22H24.5V20Z" fill="#400E00"/>
<path d="M22.5 20H20.5V22H22.5V20Z" fill="#C72D00"/>
<path d="M12.5 20H10.5V22H12.5V20Z" fill="#C72D00"/>
<path d="M10.5 20H8.5V22H10.5V20Z" fill="#400E00"/>
<path d="M8.5 20H6.5V22H8.5V20Z" fill="#FFDED5"/>
<path d="M28.5 18H26.5V20H28.5V18Z" fill="#FFDED5"/>
<path d="M26.5 18H24.5V20H26.5V18Z" fill="#400E00"/>
<path d="M24.5 18H22.5V20H24.5V18Z" fill="#C72D00"/>
<path d="M10.5 18H8.5V20H10.5V18Z" fill="#C72D00"/>
<path d="M8.5 18H6.5V20H8.5V18Z" fill="#400E00"/>
<path d="M6.5 18H4.5V20H6.5V18Z" fill="#FFDED5"/>
<path d="M30.5 16H28.5V18H30.5V16Z" fill="#FFDED5"/>
<path d="M28.5 16H26.5V18H28.5V16Z" fill="#400E00"/>
<path d="M26.5 16H24.5V18H26.5V16Z" fill="#C72D00"/>
<path d="M8.5 16H6.5V18H8.5V16Z" fill="#C72D00"/>
<path d="M6.5 16H4.5V18H6.5V16Z" fill="#400E00"/>
<path d="M4.5 16H2.5V18H4.5V16Z" fill="#FFDED5"/>
<path d="M28.5 14H26.5V16H28.5V14Z" fill="#C72D00"/>
<path d="M6.5 14H4.5V16H6.5V14Z" fill="#C72D00"/>
<path d="M4.5 8H2.5V16H4.5V8Z" fill="#400E00"/>
<path d="M30.5 8H28.5V16H30.5V8Z" fill="#400E00"/>
<path d="M2.5 8H0.5V16H2.5V8Z" fill="#FFDED5"/>
<path d="M18.5 10H14.5V12H18.5V10Z" fill="#FF6F45"/>
<path d="M32.5 8H30.5V16H32.5V8Z" fill="#FFDED5"/>
<path d="M28.5 8H26.5V10H28.5V8Z" fill="#FF6F45"/>
<path d="M26.5 8H20.5V10H18.5V12H14.5V10H12.5V8H6.5V10H4.5V14H6.5V16H8.5V18H10.5V20H12.5V22H20.5V20H22.5V18H24.5V16H26.5V14H28.5V10H26.5V8Z" fill="#FF3900"/>
<path d="M20.5 8H18.5V10H20.5V8Z" fill="#FF6F45"/>
<path d="M18.5 8H14.5V10H18.5V8Z" fill="#400E00"/>
<path d="M14.5 8H12.5V10H14.5V8Z" fill="#FF6F45"/>
<path d="M6.5 8H4.5V10H6.5V8Z" fill="#FF6F45"/>
<path d="M30.5 6H28.5V8H30.5V6Z" fill="#FFDED5"/>
<path d="M28.5 6H26.5V8H28.5V6Z" fill="#400E00"/>
<path d="M26.5 6H20.5V8H26.5V6Z" fill="#FF6F45"/>
<path d="M20.5 6H18.5V8H20.5V6Z" fill="#400E00"/>
<path d="M18.5 6H14.5V8H18.5V6Z" fill="#FFDED5"/>
<path d="M14.5 6H12.5V8H14.5V6Z" fill="#400E00"/>
<path d="M12.5 6H6.5V8H12.5V6Z" fill="#FF6F45"/>
<path d="M6.5 6H4.5V8H6.5V6Z" fill="#400E00"/>
<path d="M4.5 6H2.5V8H4.5V6Z" fill="#FFDED5"/>
<path d="M28.5 4H26.5V6H28.5V4Z" fill="#FFDED5"/>
<path d="M26.5 4H20.5V6H26.5V4Z" fill="#400E00"/>
<path d="M20.5 4H18.5V6H20.5V4Z" fill="#FFDED5"/>
<path d="M14.5 4H12.5V6H14.5V4Z" fill="#FFDED5"/>
<path d="M12.5 4H6.5V6H12.5V4Z" fill="#400E00"/>
<path d="M6.5 4H4.5V6H6.5V4Z" fill="#FFDED5"/>
<path d="M26.5 2H20.5V4H26.5V2Z" fill="#FFDED5"/>
<path d="M12.5 2H6.5V4H12.5V2Z" fill="#FFDED5"/>
</g>
</svg>
