<svg width="33" height="32" viewBox="0 0 33 32" fill="none" xmlns="http://www.w3.org/2000/svg">
<g style="mix-blend-mode:luminosity">
<path d="M22.5 30H10.5V32H22.5V30Z" fill="#FFDED4"/>
<path d="M24.5 26H22.5V30H24.5V26Z" fill="#FFDED4"/>
<path d="M20.5 28H12.5V26H10.5V30H22.5V26H20.5V28Z" fill="#400E00"/>
<path d="M20.5 26H18.5V28H20.5V26Z" fill="#FFD494"/>
<path d="M18.5 26H14.5V28H18.5V26Z" fill="#FFB74C"/>
<path d="M14.5 26H12.5V28H14.5V26Z" fill="#FFD494"/>
<path d="M10.5 26H8.5V30H10.5V26Z" fill="#FFDED4"/>
<path d="M12.5 20H10.5V26H12.5V20Z" fill="#FFDED4"/>
<path d="M16.5 24H14.5V26H18.5V22H16.5V24Z" fill="#FFD494"/>
<path d="M16.5 22H14.5V24H16.5V22Z" fill="#FFB74C"/>
<path d="M22.5 20H20.5V26H22.5V20Z" fill="#FFDED4"/>
<path d="M12.5 26H14.5V18H10.5V20H12.5V26Z" fill="#400E00"/>
<path d="M26.5 18H22.5V20H26.5V18Z" fill="#FFDED4"/>
<path d="M18.5 18V26H20.5V20H22.5V18H18.5Z" fill="#400E00"/>
<path d="M18.5 18H14.5V22H18.5V18Z" fill="#F87B20"/>
<path d="M10.5 18H6.5V20H10.5V18Z" fill="#FFDED4"/>
<path d="M28.5 16H26.5V18H28.5V16Z" fill="#FFDED4"/>
<path d="M26.5 16H22.5V18H26.5V16Z" fill="#400E00"/>
<path d="M22.5 16H20.5V18H22.5V16Z" fill="#F87B20"/>
<path d="M18.5 16V14H20.5V6H8.5V14H10.5V16H12.5V18H20.5V16H18.5Z" fill="#FFB74C"/>
<path d="M12.5 16H10.5V18H12.5V16Z" fill="#F87B20"/>
<path d="M10.5 16H6.5V18H10.5V16Z" fill="#400E00"/>
<path d="M6.5 16H4.5V18H6.5V16Z" fill="#FFDED4"/>
<path d="M30.5 14H28.5V16H30.5V14Z" fill="#FFDED4"/>
<path d="M28.5 14H26.5V16H28.5V14Z" fill="#400E00"/>
<path d="M26.5 14H22.5V16H26.5V14Z" fill="#F87B20"/>
<path d="M22.5 14H20.5V16H22.5V14Z" fill="#FFB74C"/>
<path d="M20.5 14H18.5V16H20.5V14Z" fill="#FFD494"/>
<path d="M10.5 14H6.5V16H10.5V14Z" fill="#F87B20"/>
<path d="M6.5 14H4.5V16H6.5V14Z" fill="#400E00"/>
<path d="M4.5 14H2.5V16H4.5V14Z" fill="#FFDED4"/>
<path d="M28.5 12H26.5V14H28.5V12Z" fill="#F87B20"/>
<path d="M8.5 8H6.5V14H8.5V8Z" fill="#400E00"/>
<path d="M6.5 12H4.5V14H6.5V12Z" fill="#F87B20"/>
<path d="M4.5 6H2.5V14H4.5V6Z" fill="#400E00"/>
<path d="M30.5 6H28.5V14H30.5V6Z" fill="#400E00"/>
<path d="M26.5 8H24.5V14H26.5V8Z" fill="#400E00"/>
<path d="M6.5 8H4.5V12H6.5V8Z" fill="#FFB74C"/>
<path d="M2.5 6H0.5V14H2.5V6Z" fill="#FFDED4"/>
<path d="M28.5 8H26.5V12H28.5V8Z" fill="#FFB74C"/>
<path d="M32.5 6H30.5V14H32.5V6Z" fill="#FFDED4"/>
<path d="M28.5 6H26.5V8H28.5V6Z" fill="#FFD494"/>
<path d="M26.5 6H24.5V8H26.5V6Z" fill="#F87B20"/>
<path d="M24.5 6H22.5V14H24.5V6Z" fill="#FFB74C"/>
<path d="M8.5 6H6.5V8H8.5V6Z" fill="#F87B20"/>
<path d="M6.5 6H4.5V8H6.5V6Z" fill="#FFD494"/>
<path d="M30.5 4H28.5V6H30.5V4Z" fill="#FFDED4"/>
<path d="M28.5 4H24.5V6H28.5V4Z" fill="#400E00"/>
<path d="M20.5 6V14H22.5V6H24.5V4H8.5V6H20.5Z" fill="#FFD494"/>
<path d="M8.5 4H4.5V6H8.5V4Z" fill="#400E00"/>
<path d="M4.5 4H2.5V6H4.5V4Z" fill="#FFDED4"/>
<path d="M28.5 2H24.5V4H28.5V2Z" fill="#FFDED4"/>
<path d="M24.5 2H8.5V4H24.5V2Z" fill="#400E00"/>
<path d="M8.5 2H4.5V4H8.5V2Z" fill="#FFDED4"/>
<path d="M24.5 0H8.5V2H24.5V0Z" fill="#FFDED4"/>
</g>
</svg>
