<svg width="32" height="32" viewBox="0 0 32 32" fill="none" xmlns="http://www.w3.org/2000/svg">
<g style="mix-blend-mode:luminosity" clip-path="url(#clip0_4789_56192)">
<path d="M20 30H12V32H20V30Z" fill="#FFDED4"/>
<path d="M24 28H20V30H24V28Z" fill="#FFDED4"/>
<path d="M20 28H12V30H20V28Z" fill="#400E00"/>
<path d="M12 28H8V30H12V28Z" fill="#FFDED4"/>
<path d="M26 26H24V28H26V26Z" fill="#FFDED4"/>
<path d="M24 26H20V28H24V26Z" fill="#400E00"/>
<path d="M12 26H8V28H12V26Z" fill="#400E00"/>
<path d="M8 26H6V28H8V26Z" fill="#FFDED4"/>
<path d="M28 24H26V26H28V24Z" fill="#FFDED4"/>
<path d="M26 24H24V26H26V24Z" fill="#400E00"/>
<path d="M16 24H12V26H16V24Z" fill="#FFD494"/>
<path d="M10 24V22H8V12H10V10H12V8H20V6H16V4H12V6H8V8H6V12H4V20H6V24H8V26H12V24H10Z" fill="#FFB74C"/>
<path d="M8 24H6V26H8V24Z" fill="#400E00"/>
<path d="M6 24H4V26H6V24Z" fill="#FFDED4"/>
<path d="M12 22H10V24H12V22Z" fill="#FFD494"/>
<path d="M6 20H4V24H6V20Z" fill="#400E00"/>
<path d="M30 20H28V24H30V20Z" fill="#FFDED4"/>
<path d="M28 20H26V24H28V20Z" fill="#400E00"/>
<path d="M16 20H14V22H16V20Z" fill="#E79626"/>
<path d="M10 20H8V22H10V20Z" fill="#FFD494"/>
<path d="M4 20H2V24H4V20Z" fill="#FFDED4"/>
<path d="M14 18H12V20H14V18Z" fill="#E79626"/>
<path d="M4 12H2V20H4V12Z" fill="#400E00"/>
<path d="M30 12H28V20H30V12Z" fill="#400E00"/>
<path d="M2 12H0V20H2V12Z" fill="#FFDED4"/>
<path d="M20 14H18V16H20V14Z" fill="#FFD494"/>
<path d="M32 12H30V20H32V12Z" fill="#FFDED4"/>
<path d="M24 12H22V14H24V12Z" fill="#E79626"/>
<path d="M18 12H16V14H18V12Z" fill="#FFD494"/>
<path d="M16 12H14V14H12V18H14V20H18V18H20V16H18V14H16V12Z" fill="#FFB74C"/>
<path d="M30 8H28V12H30V8Z" fill="#FFDED4"/>
<path d="M26 10H24V8H20V10H22V12H24V20H22V22H20V24H16V26H12V28H20V26H24V24H26V20H28V12H26V10Z" fill="#FFB74C"/>
<path d="M22 10H20V12H22V10Z" fill="#E79626"/>
<path d="M16 10V8H12V10H10V12H8V20H10V22H12V24H20V22H22V20H24V14H22V12H20V10H16ZM20 14V18H18V20H16V22H14V20H12V14H14V12H18V14H20Z" fill="#DB8336"/>
<path d="M6 8H4V12H6V8Z" fill="#400E00"/>
<path d="M4 8H2V12H4V8Z" fill="#FFDED4"/>
<path d="M28 8H26V12H28V8Z" fill="#400E00"/>
<path d="M26 8H24V10H26V8Z" fill="#FFD494"/>
<path d="M20 8H16V10H20V8Z" fill="#E79626"/>
<path d="M28 6H26V8H28V6Z" fill="#FFDED4"/>
<path d="M26 6H24V8H26V6Z" fill="#400E00"/>
<path d="M24 6H20V8H24V6Z" fill="#FFD494"/>
<path d="M8 6H6V8H8V6Z" fill="#400E00"/>
<path d="M6 6H4V8H6V6Z" fill="#FFDED4"/>
<path d="M26 4H24V6H26V4Z" fill="#FFDED4"/>
<path d="M24 4H20V6H24V4Z" fill="#400E00"/>
<path d="M20 4H16V6H20V4Z" fill="#FFD494"/>
<path d="M12 4H8V6H12V4Z" fill="#400E00"/>
<path d="M8 4H6V6H8V4Z" fill="#FFDED4"/>
<path d="M24 2H20V4H24V2Z" fill="#FFDED4"/>
<path d="M20 2H12V4H20V2Z" fill="#400E00"/>
<path d="M12 2H8V4H12V2Z" fill="#FFDED4"/>
<path d="M20 0H12V2H20V0Z" fill="#FFDED4"/>
</g>
<defs>
<clipPath id="clip0_4789_56192">
<rect width="32" height="32" fill="white"/>
</clipPath>
</defs>
</svg>
