<svg width="32" height="32" viewBox="0 0 32 32" fill="none" xmlns="http://www.w3.org/2000/svg">
<g style="mix-blend-mode:luminosity">
<path d="M28 30H4V32H28V30Z" fill="#FFDED4"/>
<path d="M30 4H28V28H4V4H2V30H30V4Z" fill="#231E2B"/>
<path d="M2 4H0V28H2V4Z" fill="#FFDED4"/>
<path d="M28 12H4V14H28V12Z" fill="#FFDED4"/>
<path d="M28 20H4V22H28V20Z" fill="#FFDED4"/>
<path d="M28 24H4V26H28V24Z" fill="#FFDED4"/>
<path d="M28 8H4V10H28V8Z" fill="#FFDED4"/>
<path d="M28 16H4V18H28V16Z" fill="#FFDED4"/>
<path d="M32 4H30V28H32V4Z" fill="#FFDED4"/>
<path d="M28 4H4V6H28V4Z" fill="#FFDED4"/>
<path d="M30 2H28V4H30V2Z" fill="#FFDED4"/>
<path d="M30 28H28V30H30V28Z" fill="#FFDED4"/>
<path d="M28 2H4V4H28V2Z" fill="#231E2B"/>
<path d="M4 2H2V4H4V2Z" fill="#FFDED4"/>
<path d="M6 4H4V6H6V4Z" fill="#231E2B"/>
<path d="M28 4H26V6H28V4Z" fill="#231E2B"/>
<path d="M28 26H26V28H28V26Z" fill="#231E2B"/>
<path d="M6 26H4V28H6V26Z" fill="#231E2B"/>
<path d="M8 20H6V22H8V20Z" fill="#FF3900"/>
<path d="M8 22H6V28H8V22Z" fill="#FF6F45"/>
<path d="M10 18H8V20H10V18Z" fill="#FF3900"/>
<path d="M10 20H8V28H10V20Z" fill="#FF6F45"/>
<path d="M12 18H10V20H12V18Z" fill="#FF3900"/>
<path d="M12 20H10V28H12V20Z" fill="#FF6F45"/>
<path d="M14 16H12V18H14V16Z" fill="#FF3900"/>
<path d="M14 18H12V28H14V18Z" fill="#FF6F45"/>
<path d="M16 18H14V20H16V18Z" fill="#FF3900"/>
<path d="M16 20H14V28H16V20Z" fill="#FF6F45"/>
<path d="M18 20H16V22H18V20Z" fill="#FF3900"/>
<path d="M18 22H16V28H18V22Z" fill="#FF6F45"/>
<path d="M20 18H18V20H20V18Z" fill="#FF3900"/>
<path d="M20 20H18V28H20V20Z" fill="#FF6F45"/>
<path d="M22 16H20V18H22V16Z" fill="#FF3900"/>
<path d="M22 18H20V28H22V18Z" fill="#FF6F45"/>
<path d="M24 14H22V28H24V14Z" fill="#FF6F45"/>
<path d="M26 12H24V28H26V12Z" fill="#FF6F45"/>
<path d="M28 12H26V26H28V12Z" fill="#FF6F45"/>
<path d="M22 14H20V16H22V14Z" fill="#FF3900"/>
<path d="M24 12H22V14H24V12Z" fill="#FF3900"/>
<path d="M26 10H24V12H26V10Z" fill="#FF3900"/>
<path d="M28 10H26V12H28V10Z" fill="#FF3900"/>
<path d="M4 28H2V30H4V28Z" fill="#FFDED4"/>
<path d="M6 22H4V24H6V22Z" fill="#FF3900"/>
<path d="M6 24H4V26H6V24Z" fill="#FF6F45"/>
<path d="M28 0H4V2H28V0Z" fill="#FFDED4"/>
<path d="M14 10H16V12H14V10Z" fill="#7679FF"/>
<path d="M12 10H14V12H12V10Z" fill="#7679FF"/>
<path d="M10 12H12V14H10V12Z" fill="#7679FF"/>
<path d="M8 10H10V12H8V10Z" fill="#7679FF"/>
<path d="M6 12H8V14H6V12Z" fill="#7679FF"/>
<path d="M4 14H6V16H4V14Z" fill="#7679FF"/>
<path d="M4 16H6V22H4V16Z" fill="#B1B3FF"/>
<path d="M6 14H8V20H6V14Z" fill="#B1B3FF"/>
<path d="M8 12H10V18H8V12Z" fill="#B1B3FF"/>
<path d="M10 14H12V18H10V14Z" fill="#B1B3FF"/>
<path d="M12 12H14V16H12V12Z" fill="#B1B3FF"/>
<path d="M14 12H16V18H14V12Z" fill="#B1B3FF"/>
<path d="M16 14H18V20H16V14Z" fill="#B1B3FF"/>
<path d="M18 16H20V18H18V16Z" fill="#B1B3FF"/>
<path d="M16 12H18V14H16V12Z" fill="#7679FF"/>
<path d="M18 14H20V16H18V14Z" fill="#7679FF"/>
<path d="M20 14H22V16H20V14Z" fill="#7679FF"/>
<path d="M22 16H24V18H22V16Z" fill="#7679FF"/>
<path d="M24 18H26V20H24V18Z" fill="#7679FF"/>
<path d="M26 16H28V18H26V16Z" fill="#7679FF"/>
<path d="M26 26H6V28H26V26Z" fill="#FF8B69"/>
<path d="M8 10H4V12H8V10Z" fill="#E6BBAE"/>
<path d="M12 10H10V12H12V10Z" fill="#E6BBAE"/>
<path d="M24 10H16V12H24V10Z" fill="#E6BBAE"/>
<path d="M8 18H4V20H8V18Z" fill="#C0C2FF"/>
<path d="M14 18H12V20H14V18Z" fill="#FF8B69"/>
<path d="M18 18H16V20H18V18Z" fill="#C0C2FF"/>
<path d="M24 18H20V20H24V18Z" fill="#FF8B69"/>
<path d="M28 18H26V20H28V18Z" fill="#FF8B69"/>
<path d="M28 22H6V24H28V22Z" fill="#FF8B69"/>
<path d="M28 6H4V8H28V6Z" fill="#E6BBAE"/>
<path d="M18 14H6V16H18V14Z" fill="#C0C2FF"/>
<path d="M28 14H22V16H28V14Z" fill="#FF8B69"/>
</g>
</svg>
