<svg width="32" height="32" viewBox="0 0 32 32" fill="none" xmlns="http://www.w3.org/2000/svg">
<g style="mix-blend-mode:luminosity">
<path d="M20 30H12V32H20V30Z" fill="#FFDED4"/>
<path d="M22 28H20V30H22V28Z" fill="#FFDED4"/>
<path d="M20 28H12V30H20V28Z" fill="#400E00"/>
<path d="M12 28H10V30H12V28Z" fill="#FFDED4"/>
<path d="M24 26H22V28H24V26Z" fill="#FFDED4"/>
<path d="M22 26H20V28H22V26Z" fill="#400E00"/>
<path d="M20 26H16V28H20V26Z" fill="#C72D00"/>
<path d="M16 26H12V28H16V26Z" fill="#F87B20"/>
<path d="M12 26H10V28H12V26Z" fill="#400E00"/>
<path d="M10 26H8V28H10V26Z" fill="#FFDED4"/>
<path d="M26 24H24V26H26V24Z" fill="#FFDED4"/>
<path d="M24 24H22V26H24V24Z" fill="#400E00"/>
<path d="M22 24H20V26H22V24Z" fill="#C72D00"/>
<path d="M16 26V16H6V20H8V22H10V24H12V26H16Z" fill="#FFB74C"/>
<path d="M12 24H10V26H12V24Z" fill="#F87B20"/>
<path d="M10 24H8V26H10V24Z" fill="#400E00"/>
<path d="M8 24H6V26H8V24Z" fill="#FFDED4"/>
<path d="M28 22H26V24H28V22Z" fill="#FFDED4"/>
<path d="M26 22H24V24H26V22Z" fill="#400E00"/>
<path d="M24 22H22V24H24V22Z" fill="#C72D00"/>
<path d="M10 22H8V24H10V22Z" fill="#F87B20"/>
<path d="M8 22H6V24H8V22Z" fill="#400E00"/>
<path d="M6 22H4V24H6V22Z" fill="#FFDED4"/>
<path d="M26 20H24V22H26V20Z" fill="#C72D00"/>
<path d="M8 20H6V22H8V20Z" fill="#F87B20"/>
<path d="M6 8H10V6H4V22H6V8Z" fill="#400E00"/>
<path d="M4 6H2V22H4V6Z" fill="#FFDED4"/>
<path d="M16 16V26H20V24H22V22H24V20H26V16H16Z" fill="#FF3900"/>
<path d="M30 6H28V22H30V6Z" fill="#FFDED4"/>
<path d="M26 8H22V10H26V8Z" fill="#FFD494"/>
<path d="M10 8V10H6V16H16V6H14V8H10Z" fill="#FF3900"/>
<path d="M10 8H6V10H10V8Z" fill="#FF6F45"/>
<path d="M22 6V8H26V22H28V6H22Z" fill="#400E00"/>
<path d="M22 6H18V8H22V6Z" fill="#FFD494"/>
<path d="M16 16H26V10H22V8H18V6H16V16Z" fill="#FFB74C"/>
<path d="M14 6H10V8H14V6Z" fill="#FF6F45"/>
<path d="M28 4H22V6H28V4Z" fill="#FFDED4"/>
<path d="M22 4H18V6H22V4Z" fill="#400E00"/>
<path d="M18 4H16V6H18V4Z" fill="#FFD494"/>
<path d="M16 4H14V6H16V4Z" fill="#FF6F45"/>
<path d="M14 4H10V6H14V4Z" fill="#400E00"/>
<path d="M10 4H4V6H10V4Z" fill="#FFDED4"/>
<path d="M22 2H18V4H22V2Z" fill="#FFDED4"/>
<path d="M18 2H14V4H18V2Z" fill="#400E00"/>
<path d="M14 2H10V4H14V2Z" fill="#FFDED4"/>
<path d="M18 0H14V2H18V0Z" fill="#FFDED4"/>
</g>
</svg>
