<svg width="32" height="32" viewBox="0 0 32 32" fill="none" xmlns="http://www.w3.org/2000/svg">
<g style="mix-blend-mode:luminosity">
<path d="M26 30H6V32H26V30Z" fill="#FFDED4"/>
<path d="M28 26H26V30H28V26Z" fill="#FFDED4"/>
<path d="M26 26H24V28H22V24H20V28H18V24H14V28H12V24H10V28H8V18H4V20H6V30H26V26Z" fill="#400E00"/>
<path d="M6 20H4V30H6V20Z" fill="#FFDED4"/>
<path d="M30 24H28V26H30V24Z" fill="#FFDED4"/>
<path d="M28 24H26V26H28V24Z" fill="#400E00"/>
<path d="M24 22H22V18H20V16H18V20H16V24H18V28H20V24H22V28H24V22Z" fill="#FFDED4"/>
<path d="M16 22H14V24H16V22Z" fill="#C72D00"/>
<path d="M12 22V16H10V14H8V12H6V14H4V18H8V28H10V24H12V28H14V22H12Z" fill="#FFDED4"/>
<path d="M30 18H28V24H30V18Z" fill="#400E00"/>
<path d="M26 18H24V26H26V24H28V22H26V18Z" fill="#FF3900"/>
<path d="M16 20H14V22H16V20Z" fill="#FF3900"/>
<path d="M14 20H12V22H14V20Z" fill="#C72D00"/>
<path d="M32 18H30V24H32V18Z" fill="#FFDED4"/>
<path d="M28 18H26V22H28V18Z" fill="#C72D00"/>
<path d="M24 18H22V22H24V18Z" fill="#C72D00"/>
<path d="M18 18H16V20H18V18Z" fill="#C72D00"/>
<path d="M14 16H12V20H14V16Z" fill="#FF3900"/>
<path d="M4 18H2V20H4V18Z" fill="#FFDED4"/>
<path d="M30 16H28V18H30V16Z" fill="#FFDED4"/>
<path d="M28 16H26V18H28V16Z" fill="#400E00"/>
<path d="M26 16H24V18H26V16Z" fill="#FF6F45"/>
<path d="M24 16H22V18H24V16Z" fill="#FF3900"/>
<path d="M22 16H20V18H22V16Z" fill="#FF6F45"/>
<path d="M4 10H2V18H4V10Z" fill="#400E00"/>
<path d="M28 14H26V16H28V14Z" fill="#FFDED4"/>
<path d="M26 14H18V16H26V14Z" fill="#400E00"/>
<path d="M18 14H16V16H18V14Z" fill="#FF6F45"/>
<path d="M12 14V16H14V20H16V18H18V16H16V14H12Z" fill="#FF3900"/>
<path d="M12 14H10V16H12V14Z" fill="#C72D00"/>
<path d="M2 10H0V18H2V10Z" fill="#FFDED4"/>
<path d="M18 14H26V12H20V10H18V14Z" fill="#FFDED4"/>
<path d="M16 10H14V14H16V10Z" fill="#FF6F45"/>
<path d="M14 12H12V14H14V12Z" fill="#FFDED4"/>
<path d="M12 12H10V14H12V12Z" fill="#FF3900"/>
<path d="M10 12H8V14H10V12Z" fill="#400E00"/>
<path d="M6 12H4V14H6V12Z" fill="#400E00"/>
<path d="M18 10H16V14H18V10Z" fill="#400E00"/>
<path d="M14 10H10V12H14V10Z" fill="#FF3900"/>
<path d="M10 10H6V12H10V10Z" fill="#FF3900"/>
<path d="M6 10H4V12H6V10Z" fill="#FF3900"/>
<path d="M18 8H16V10H18V8Z" fill="#FFDED4"/>
<path d="M16 8H14V10H16V8Z" fill="#400E00"/>
<path d="M14 8H10V10H14V8Z" fill="#FF6F45"/>
<path d="M10 8H8V10H10V8Z" fill="#FFB74C"/>
<path d="M8 8H6V10H8V8Z" fill="#F87B20"/>
<path d="M6 8H4V10H6V8Z" fill="#400E00"/>
<path d="M4 8H2V10H4V8Z" fill="#FFDED4"/>
<path d="M16 6H14V8H16V6Z" fill="#FFDED4"/>
<path d="M14 6H8V8H14V6Z" fill="#400E00"/>
<path d="M8 6H6V8H8V6Z" fill="#FFB74C"/>
<path d="M6 6H4V8H6V6Z" fill="#F87B20"/>
<path d="M4 4H6V2H2V8H4V4Z" fill="#400E00"/>
<path d="M14 4H8V6H14V4Z" fill="#FFDED4"/>
<path d="M8 4H6V6H8V4Z" fill="#400E00"/>
<path d="M6 4H4V6H6V4Z" fill="#FFB74C"/>
<path d="M2 2H0V8H2V2Z" fill="#FFDED4"/>
<path d="M8 2H6V4H8V2Z" fill="#FFDED4"/>
<path d="M6 0H2V2H6V0Z" fill="#FFDED4"/>
</g>
</svg>
