<svg width="32" height="32" viewBox="0 0 32 32" fill="none" xmlns="http://www.w3.org/2000/svg">
<g style="mix-blend-mode:luminosity">
<path d="M22 30H10V32H22V30Z" fill="#FFDED4"/>
<path d="M26 28H22V30H26V28Z" fill="#FFDED4"/>
<path d="M22 28H10V30H22V28Z" fill="#400E00"/>
<path d="M10 28H6V30H10V28Z" fill="#FFDED4"/>
<path d="M28 26H26V28H28V26Z" fill="#FFDED4"/>
<path d="M26 26H22V28H26V26Z" fill="#400E00"/>
<path d="M10 26H6V28H10V26Z" fill="#400E00"/>
<path d="M6 26H4V28H6V26Z" fill="#FFDED4"/>
<path d="M30 24H28V26H30V24Z" fill="#FFDED4"/>
<path d="M28 24H26V26H28V24Z" fill="#400E00"/>
<path d="M20 24V26H18V22H16V20H14V24H12V22H10V24H8V26H10V28H22V24H20Z" fill="#FFB74C"/>
<path d="M8 24H6V26H8V24Z" fill="#FC852E"/>
<path d="M6 24H4V26H6V24Z" fill="#400E00"/>
<path d="M4 24H2V26H4V24Z" fill="#FFDED4"/>
<path d="M28 22H26V24H28V22Z" fill="#FF3900"/>
<path d="M26 22H24V24H26V22Z" fill="#FF6712"/>
<path d="M24 20H22V22H20V20H18V18H16V14H14V20H16V22H18V26H20V24H22V26H26V24H24V20Z" fill="#FC852E"/>
<path d="M8 22H6V24H8V22Z" fill="#FF6712"/>
<path d="M6 22H4V24H6V22Z" fill="#FF3900"/>
<path d="M4 16H2V24H4V16Z" fill="#400E00"/>
<path d="M30 16H28V24H30V16Z" fill="#400E00"/>
<path d="M28 20H26V22H28V20Z" fill="#FF3900"/>
<path d="M22 20H20V22H22V20Z" fill="#FF6712"/>
<path d="M8 20V18H6V22H8V24H10V22H12V24H14V20H8Z" fill="#FC852E"/>
<path d="M6 18H4V22H6V18Z" fill="#FF3900"/>
<path d="M2 16H0V24H2V16Z" fill="#FFDED4"/>
<path d="M26 18H24V22H26V18Z" fill="#FF3900"/>
<path d="M24 18H22V20H24V18Z" fill="#FF6712"/>
<path d="M22 18H20V20H22V18Z" fill="#FF3900"/>
<path d="M20 18H18V20H20V18Z" fill="#FF6712"/>
<path d="M14 18H12V20H14V18Z" fill="#FFB74C"/>
<path d="M12 18H10V20H12V18Z" fill="#FF6712"/>
<path d="M10 18H8V20H10V18Z" fill="#FF3900"/>
<path d="M32 16H30V24H32V16Z" fill="#FFDED4"/>
<path d="M28 16H26V20H28V16Z" fill="#C72D00"/>
<path d="M24 16H22V18H24V16Z" fill="#FC852E"/>
<path d="M22 14H20V18H22V14Z" fill="#FF3900"/>
<path d="M20 12H18V14H16V16H18V18H20V12Z" fill="#FF3900"/>
<path d="M18 16H16V18H18V16Z" fill="#FFB74C"/>
<path d="M14 16H12V18H14V16Z" fill="#FF6712"/>
<path d="M12 16H10V18H12V16Z" fill="#FF3900"/>
<path d="M10 16H8V18H10V16Z" fill="#FF3900"/>
<path d="M8 16H6V18H8V16Z" fill="#FF3900"/>
<path d="M6 16H4V18H6V16Z" fill="#C72D00"/>
<path d="M26 14H24V18H26V14Z" fill="#FF3900"/>
<path d="M24 14H22V16H24V14Z" fill="#C72D00"/>
<path d="M14 14H12V16H14V14Z" fill="#FF3900"/>
<path d="M12 14H10V16H12V14Z" fill="#FF3900"/>
<path d="M8 14H6V16H8V14Z" fill="#FF3900"/>
<path d="M6 12H4V16H6V12Z" fill="#400E00"/>
<path d="M4 12H2V16H4V12Z" fill="#FFDED4"/>
<path d="M30 10H28V16H30V10Z" fill="#FFDED4"/>
<path d="M26 10H24V14H26V10Z" fill="#C72D00"/>
<path d="M24 10H22V14H24V10Z" fill="#400E00"/>
<path d="M22 10H20V14H22V10Z" fill="#C72D00"/>
<path d="M18 12H16V14H18V12Z" fill="#FF6712"/>
<path d="M14 12H12V14H14V12Z" fill="#FF3900"/>
<path d="M8 12H6V14H8V12Z" fill="#C72D00"/>
<path d="M28 10H26V16H28V10Z" fill="#400E00"/>
<path d="M20 10H18V12H20V10Z" fill="#FF3900"/>
<path d="M18 10H16V12H18V10Z" fill="#FC852E"/>
<path d="M16 10H14V14H16V10Z" fill="#FF3900"/>
<path d="M14 8H12V12H14V8Z" fill="#C72D00"/>
<path d="M10 12H8V16H10V14H12V8H10V12Z" fill="#400E00"/>
<path d="M8 12H10V8H6V10H8V12Z" fill="#FFDED4"/>
<path d="M8 10H6V12H8V10Z" fill="#400E00"/>
<path d="M6 10H4V12H6V10Z" fill="#FFDED4"/>
<path d="M28 8H26V10H28V8Z" fill="#FFDED4"/>
<path d="M26 8H24V10H26V8Z" fill="#400E00"/>
<path d="M24 8H22V10H24V8Z" fill="#FFDED4"/>
<path d="M22 8H20V10H22V8Z" fill="#400E00"/>
<path d="M20 8H18V10H20V8Z" fill="#C72D00"/>
<path d="M18 8H16V10H18V8Z" fill="#FF3900"/>
<path d="M16 6H14V10H16V6Z" fill="#FF3900"/>
<path d="M26 6H24V8H26V6Z" fill="#FFDED4"/>
<path d="M22 6H20V8H22V6Z" fill="#FFDED4"/>
<path d="M20 6H18V8H20V6Z" fill="#400E00"/>
<path d="M18 6H16V8H18V6Z" fill="#C72D00"/>
<path d="M14 4H12V8H14V4Z" fill="#400E00"/>
<path d="M12 4H10V8H12V4Z" fill="#FFDED4"/>
<path d="M20 4H18V6H20V4Z" fill="#FFDED4"/>
<path d="M18 4H16V6H18V4Z" fill="#400E00"/>
<path d="M16 4H14V6H16V4Z" fill="#C72D00"/>
<path d="M18 2H16V4H18V2Z" fill="#FFDED4"/>
<path d="M16 2H14V4H16V2Z" fill="#400E00"/>
<path d="M14 2H12V4H14V2Z" fill="#FFDED4"/>
<path d="M16 0H14V2H16V0Z" fill="#FFDED4"/>
</g>
</svg>
