<svg width="24" height="32" viewBox="0 0 24 32" fill="none" xmlns="http://www.w3.org/2000/svg">
<path d="M8 30H4V32H8V30Z" fill="#FFDED4"/>
<path d="M10 28H8V30H10V28Z" fill="#FFDED4"/>
<path d="M6 28V26H4V30H8V28H6Z" fill="#400E00"/>
<path d="M12 26H10V28H12V26Z" fill="#FFDED4"/>
<path d="M10 26H8V28H10V26Z" fill="#400E00"/>
<path d="M8 26H6V28H8V26Z" fill="#FF6F45"/>
<path d="M4 26H2V30H4V26Z" fill="#FFDED4"/>
<path d="M14 24H12V26H14V24Z" fill="#FFDED4"/>
<path d="M12 24H10V26H12V24Z" fill="#400E00"/>
<path d="M8 22H6V26H8V22Z" fill="#400E00"/>
<path d="M6 22H4V26H6V22Z" fill="#FFDED4"/>
<path d="M16 22H14V24H16V22Z" fill="#FFDED4"/>
<path d="M14 22H12V24H14V22Z" fill="#400E00"/>
<path d="M12 22H10V24H12V22Z" fill="#C72D00"/>
<path d="M10 22H8V26H10V22Z" fill="#FF6F45"/>
<path d="M18 20H16V22H18V20Z" fill="#FFDED4"/>
<path d="M16 20H14V22H16V20Z" fill="#400E00"/>
<path d="M14 20H12V22H14V20Z" fill="#C72D00"/>
<path d="M8 18H2V20H6V22H8V18Z" fill="#FFDED4"/>
<path d="M20 18H18V20H20V18Z" fill="#FFDED4"/>
<path d="M18 18H16V20H18V18Z" fill="#400E00"/>
<path d="M16 18H14V20H16V18Z" fill="#C72D00"/>
<path d="M12 18H10V22H12V18Z" fill="#FF6F45"/>
<path d="M22 16H20V18H22V16Z" fill="#FFDED4"/>
<path d="M20 16H18V18H20V16Z" fill="#400E00"/>
<path d="M18 16H16V18H18V16Z" fill="#C72D00"/>
<path d="M8 18V22H10V18H12V16H4V12H2V18H8Z" fill="#400E00"/>
<path d="M20 14H18V16H20V14Z" fill="#C72D00"/>
<path d="M2 12H0V18H2V12Z" fill="#FFDED4"/>
<path d="M24 10H22V16H24V10Z" fill="#FFDED4"/>
<path d="M20 12H16V14H20V12Z" fill="#FF6F45"/>
<path d="M6 12H4V16H6V12Z" fill="#FF6F45"/>
<path d="M18 10V8H16V10H14V12H20V16H22V10H18Z" fill="#400E00"/>
<path d="M14 10H12V12H14V10Z" fill="#C72D00"/>
<path d="M8 8H6V12H8V8Z" fill="#FF6F45"/>
<path d="M6 8H4V12H6V8Z" fill="#400E00"/>
<path d="M4 8H2V12H4V8Z" fill="#FFDED4"/>
<path d="M16 8H14V10H16V8Z" fill="#C72D00"/>
<path d="M20 8H18V10H22V6H20V8Z" fill="#FFDED4"/>
<path d="M20 6H18V8H20V6Z" fill="#400E00"/>
<path d="M18 6H16V8H18V6Z" fill="#C72D00"/>
<path d="M10 8H8V12H6V16H12V20H14V18H16V16H18V14H16V12H12V10H14V8H16V6H18V4H10V8Z" fill="#FF3900"/>
<path d="M10 4H8V8H10V4Z" fill="#FF6F45"/>
<path d="M8 4H6V8H8V4Z" fill="#400E00"/>
<path d="M6 4H4V8H6V4Z" fill="#FFDED4"/>
<path d="M24 2H22V6H24V2Z" fill="#FFDED4"/>
<path d="M20 4H18V6H20V4Z" fill="#C72D00"/>
<path d="M8 2V4H20V6H22V2H8Z" fill="#400E00"/>
<path d="M8 2H6V4H8V2Z" fill="#FFDED4"/>
<path d="M22 0H8V2H22V0Z" fill="#FFDED4"/>
</svg>
